<?xml version="1.0" encoding="UTF-8"?>
<svg id="_レイヤー_2" data-name="レイヤー 2" xmlns="http://www.w3.org/2000/svg" viewBox="0 0 1344.45 112.31">
  <defs>
    <style>
      .cls-1 {
        stroke-width: 0px;
      }
    </style>
  </defs>
  <g id="_レイヤー_1-2" data-name="レイヤー 1">
    <g>
      <path class="cls-1" d="m62.89,0v22.15h-17.09v88.52h-28.78V22.15H0V0h62.89Z"/>
      <path class="cls-1" d="m88.47,55.1h-25.91v-6.08c0-7.02.81-12.43,2.43-16.24,1.62-3.8,4.86-7.17,9.74-10.08,4.88-2.92,11.21-4.38,19-4.38,9.34,0,16.38,1.65,21.12,4.96,4.74,3.3,7.59,7.36,8.54,12.17.96,4.81,1.44,14.71,1.44,29.7v45.53h-26.87v-8.08c-1.69,3.24-3.86,5.67-6.53,7.29s-5.84,2.43-9.54,2.43c-4.83,0-9.26-1.36-13.3-4.07s-6.05-8.65-6.05-17.81v-7.45c0-6.79,1.07-11.42,3.21-13.88,2.14-2.46,7.45-5.33,15.93-8.61,9.07-3.55,13.92-5.95,14.56-7.18.64-1.23.96-3.74.96-7.52,0-4.74-.35-7.83-1.06-9.26-.71-1.44-1.88-2.15-3.52-2.15-1.87,0-3.03.6-3.49,1.81-.46,1.21-.68,4.34-.68,9.4v9.5Zm8.75,12.44c-4.42,3.24-6.98,5.95-7.69,8.13-.71,2.19-1.06,5.33-1.06,9.43,0,4.69.31,7.72.92,9.09s1.83,2.05,3.66,2.05,2.86-.54,3.38-1.61c.52-1.07.79-3.88.79-8.44v-18.66Z"/>
      <path class="cls-1" d="m160.22,0v26.2c2.28-2.65,4.82-4.62,7.62-5.93,2.8-1.3,5.84-1.95,9.13-1.95,3.78,0,7.06.59,9.84,1.78,2.78,1.19,4.9,2.85,6.36,4.99,1.46,2.14,2.33,4.24,2.63,6.29.3,2.05.44,6.43.44,13.12v40.88c0,6.65-.44,11.61-1.33,14.87-.89,3.26-2.97,6.08-6.25,8.48s-7.18,3.59-11.69,3.59c-3.24,0-6.25-.71-9.06-2.12s-5.37-3.54-7.69-6.37l-1.78,6.85h-25.84V0h27.62Zm8.41,45.73c0-4.69-.3-7.76-.89-9.19-.59-1.44-1.75-2.15-3.49-2.15s-2.78.63-3.28,1.88c-.5,1.25-.75,4.41-.75,9.47v39.1c0,4.88.28,8,.85,9.37.57,1.37,1.7,2.05,3.38,2.05s2.86-.71,3.38-2.12c.52-1.41.79-4.81.79-10.19v-38.21Z"/>
      <path class="cls-1" d="m232.23,0v110.67h-28.44V0h28.44Z"/>
      <path class="cls-1" d="m302.86,66.92h-35.75v19.62c0,4.1.3,6.75.89,7.93.59,1.19,1.73,1.78,3.42,1.78,2.1,0,3.5-.79,4.2-2.36.71-1.57,1.06-4.61,1.06-9.13v-11.96h26.18v6.7c0,5.61-.35,9.91-1.06,12.92-.71,3.01-2.36,6.22-4.96,9.64s-5.89,5.98-9.88,7.69c-3.99,1.71-8.99,2.56-15,2.56s-10.98-.84-15.45-2.53c-4.47-1.69-7.94-4-10.42-6.94-2.48-2.94-4.2-6.17-5.16-9.71-.96-3.53-1.44-8.67-1.44-15.42v-26.45c0-7.93,1.07-14.18,3.21-18.76,2.14-4.58,5.65-8.09,10.53-10.53,4.88-2.44,10.48-3.66,16.82-3.66,7.75,0,14.14,1.47,19.17,4.41,5.04,2.94,8.57,6.84,10.6,11.69,2.03,4.85,3.04,11.68,3.04,20.47v12.03Zm-27.69-14.77v-6.63c0-4.69-.25-7.72-.75-9.09-.5-1.37-1.53-2.05-3.08-2.05-1.91,0-3.1.58-3.55,1.74-.46,1.16-.68,4.3-.68,9.4v6.63h8.07Z"/>
      <path class="cls-1" d="m399.04,51.82v22.22c0,8.16-.41,14.14-1.23,17.94-.82,3.81-2.58,7.36-5.26,10.66-2.69,3.3-6.14,5.74-10.36,7.31-4.22,1.57-9.06,2.36-14.53,2.36-6.11,0-11.28-.67-15.52-2.02s-7.53-3.37-9.88-6.08c-2.35-2.71-4.02-5.99-5.02-9.84-1-3.85-1.5-9.63-1.5-17.33v-23.24c0-8.43.91-15.02,2.73-19.76,1.82-4.74,5.1-8.54,9.84-11.42,4.74-2.87,10.8-4.31,18.18-4.31,6.2,0,11.52.92,15.96,2.77s7.87,4.25,10.29,7.21c2.42,2.96,4.07,6.02,4.96,9.16s1.33,7.93,1.33,14.36Zm-27.62-6.84c0-4.65-.25-7.58-.75-8.78-.5-1.21-1.57-1.81-3.21-1.81s-2.73.6-3.28,1.81c-.55,1.21-.82,4.14-.82,8.78v40.95c0,4.28.27,7.08.82,8.37s1.62,1.95,3.21,1.95,2.72-.59,3.25-1.78c.52-1.18.79-3.74.79-7.66v-41.84Z"/>
      <path class="cls-1" d="m442.71,0v14.01c-5.7,0-9.06.26-10.08.79-1.03.52-1.54,2.02-1.54,4.48v2.87h11.62v14.36h-6.56v74.17h-27.62V36.5h-5.67v-14.36h5.67c0-5.97.21-9.96.62-11.96.41-2,1.42-3.79,3.04-5.37,1.62-1.57,3.88-2.77,6.8-3.59,2.92-.82,7.45-1.23,13.6-1.23h10.12Z"/>
      <path class="cls-1" d="m533.69,54.21h-26.04v-10.46c0-3.65-.3-6.12-.89-7.42-.59-1.3-1.69-1.95-3.28-1.95s-2.67.57-3.21,1.71c-.55,1.14-.82,3.69-.82,7.66v42.79c0,3.24.41,5.66,1.23,7.28.82,1.62,2.03,2.43,3.62,2.43,1.87,0,3.13-.84,3.79-2.53.66-1.69.99-4.88.99-9.57v-10.8h24.61c-.05,7.25-.31,12.68-.79,16.3s-2.01,7.34-4.58,11.14c-2.58,3.81-5.94,6.68-10.08,8.61-4.15,1.94-9.27,2.91-15.38,2.91-7.79,0-13.97-1.33-18.53-4-4.56-2.67-7.78-6.4-9.67-11.21-1.89-4.81-2.84-11.63-2.84-20.47v-25.77c0-7.7.77-13.51,2.32-17.43,1.55-3.92,4.85-7.42,9.91-10.49s11.21-4.61,18.46-4.61,13.35,1.53,18.46,4.58c5.1,3.05,8.5,6.9,10.19,11.55,1.69,4.65,2.53,11.23,2.53,19.76Z"/>
      <path class="cls-1" d="m602.64,51.82v22.22c0,8.16-.41,14.14-1.23,17.94-.82,3.81-2.58,7.36-5.26,10.66-2.69,3.3-6.14,5.74-10.36,7.31s-9.06,2.36-14.53,2.36c-6.11,0-11.28-.67-15.52-2.02s-7.53-3.37-9.88-6.08c-2.35-2.71-4.02-5.99-5.02-9.84-1-3.85-1.5-9.63-1.5-17.33v-23.24c0-8.43.91-15.02,2.73-19.76,1.82-4.74,5.1-8.54,9.84-11.42,4.74-2.87,10.8-4.31,18.18-4.31,6.2,0,11.52.92,15.96,2.77s7.87,4.25,10.29,7.21c2.41,2.96,4.07,6.02,4.96,9.16s1.33,7.93,1.33,14.36Zm-27.62-6.84c0-4.65-.25-7.58-.75-8.78-.5-1.21-1.57-1.81-3.21-1.81s-2.73.6-3.28,1.81c-.55,1.21-.82,4.14-.82,8.78v40.95c0,4.28.27,7.08.82,8.37s1.62,1.95,3.21,1.95,2.72-.59,3.25-1.78c.52-1.18.79-3.74.79-7.66v-41.84Z"/>
      <path class="cls-1" d="m637.78,19.96l-.48,8.36c2-3.33,4.45-5.83,7.35-7.5,2.89-1.67,6.23-2.5,10.01-2.5,4.74,0,8.61,1.12,11.62,3.35,3.01,2.23,4.94,5.05,5.81,8.44.87,3.4,1.3,9.06,1.3,16.99v63.57h-27.62v-62.82c0-6.24-.21-10.05-.62-11.42s-1.55-2.05-3.42-2.05c-1.96,0-3.19.79-3.69,2.36-.5,1.57-.75,5.78-.75,12.61v61.32h-27.62V19.96h28.1Z"/>
      <path class="cls-1" d="m711.49,7.86v14.29h7.45v14.36h-7.45v48.53c0,5.97.31,9.3.92,9.98s3.18,1.03,7.69,1.03v14.63h-11.14c-6.29,0-10.78-.26-13.47-.79-2.69-.52-5.06-1.73-7.11-3.62-2.05-1.89-3.33-4.06-3.83-6.49-.5-2.44-.75-8.17-.75-17.19v-46.07h-5.95v-14.36h5.95V7.86h27.69Z"/>
      <path class="cls-1" d="m786.68,66.92h-35.75v19.62c0,4.1.3,6.75.89,7.93.59,1.19,1.73,1.78,3.42,1.78,2.1,0,3.5-.79,4.2-2.36.71-1.57,1.06-4.61,1.06-9.13v-11.96h26.18v6.7c0,5.61-.35,9.91-1.06,12.92-.71,3.01-2.36,6.22-4.96,9.64s-5.89,5.98-9.88,7.69c-3.99,1.71-8.99,2.56-15,2.56s-10.98-.84-15.45-2.53c-4.47-1.69-7.94-4-10.42-6.94-2.48-2.94-4.2-6.17-5.16-9.71-.96-3.53-1.44-8.67-1.44-15.42v-26.45c0-7.93,1.07-14.18,3.21-18.76,2.14-4.58,5.65-8.09,10.53-10.53,4.88-2.44,10.48-3.66,16.82-3.66,7.75,0,14.14,1.47,19.17,4.41,5.04,2.94,8.57,6.84,10.6,11.69,2.03,4.85,3.04,11.68,3.04,20.47v12.03Zm-27.69-14.77v-6.63c0-4.69-.25-7.72-.75-9.09-.5-1.37-1.53-2.05-3.08-2.05-1.91,0-3.1.58-3.55,1.74-.46,1.16-.68,4.3-.68,9.4v6.63h8.07Z"/>
      <path class="cls-1" d="m821.75,19.96l-.48,8.36c2-3.33,4.45-5.83,7.35-7.5,2.89-1.67,6.23-2.5,10.01-2.5,4.74,0,8.61,1.12,11.62,3.35,3.01,2.23,4.94,5.05,5.81,8.44.87,3.4,1.3,9.06,1.3,16.99v63.57h-27.62v-62.82c0-6.24-.21-10.05-.62-11.42s-1.55-2.05-3.42-2.05c-1.96,0-3.19.79-3.69,2.36-.5,1.57-.75,5.78-.75,12.61v61.32h-27.62V19.96h28.1Z"/>
      <path class="cls-1" d="m895.46,7.86v14.29h7.45v14.36h-7.45v48.53c0,5.97.31,9.3.92,9.98s3.18,1.03,7.69,1.03v14.63h-11.14c-6.29,0-10.78-.26-13.47-.79-2.69-.52-5.06-1.73-7.11-3.62-2.05-1.89-3.33-4.06-3.83-6.49-.5-2.44-.75-8.17-.75-17.19v-46.07h-5.95v-14.36h5.95V7.86h27.69Z"/>
      <path class="cls-1" d="m965.35,48.95h-24.47v-4.92c0-4.19-.24-6.85-.72-7.96-.48-1.12-1.67-1.67-3.59-1.67-1.55,0-2.71.51-3.49,1.54-.78,1.03-1.16,2.56-1.16,4.61,0,2.78.19,4.82.58,6.12.39,1.3,1.55,2.72,3.49,4.27,1.94,1.55,5.91,3.81,11.93,6.77,8.02,3.92,13.28,7.61,15.79,11.07,2.51,3.46,3.76,8.5,3.76,15.11,0,7.38-.96,12.95-2.87,16.71s-5.12,6.65-9.6,8.68c-4.49,2.03-9.9,3.04-16.24,3.04-7.02,0-13.02-1.09-18.01-3.28s-8.42-5.15-10.29-8.89c-1.87-3.74-2.8-9.39-2.8-16.95v-4.38h24.47v5.74c0,4.88.31,8.04.92,9.5.62,1.46,1.83,2.19,3.66,2.19,1.96,0,3.33-.49,4.1-1.47.77-.98,1.16-3.04,1.16-6.19,0-4.33-.5-7.04-1.5-8.13-1.05-1.09-6.4-4.33-16.06-9.71-8.11-4.56-13.06-8.69-14.83-12.41-1.78-3.71-2.67-8.12-2.67-13.23,0-7.25.96-12.59,2.87-16.03,1.91-3.44,5.16-6.09,9.74-7.96,4.58-1.87,9.9-2.8,15.96-2.8s11.13.76,15.35,2.29c4.21,1.53,7.45,3.54,9.71,6.05,2.26,2.51,3.62,4.83,4.1,6.97.48,2.14.72,5.49.72,10.05v5.26Z"/>
      <path class="cls-1" d="m1089.15,0v110.67h-25.16l-.03-74.72-10.01,74.72h-17.84l-10.56-73.01-.03,73.01h-25.16V0h37.24c1.1,6.65,2.24,14.5,3.42,23.53l4.09,28.15,6.61-51.68h37.44Z"/>
      <path class="cls-1" d="m1122.37,55.1h-25.91v-6.08c0-7.02.81-12.43,2.43-16.24,1.62-3.8,4.86-7.17,9.74-10.08,4.88-2.92,11.21-4.38,19-4.38,9.34,0,16.38,1.65,21.12,4.96,4.74,3.3,7.59,7.36,8.54,12.17.96,4.81,1.44,14.71,1.44,29.7v45.53h-26.87v-8.08c-1.69,3.24-3.86,5.67-6.53,7.29s-5.84,2.43-9.54,2.43c-4.83,0-9.26-1.36-13.3-4.07s-6.05-8.65-6.05-17.81v-7.45c0-6.79,1.07-11.42,3.21-13.88,2.14-2.46,7.45-5.33,15.93-8.61,9.07-3.55,13.92-5.95,14.56-7.18.64-1.23.96-3.74.96-7.52,0-4.74-.35-7.83-1.06-9.26-.71-1.44-1.88-2.15-3.52-2.15-1.87,0-3.03.6-3.49,1.81-.46,1.21-.68,4.34-.68,9.4v9.5Zm8.75,12.44c-4.42,3.24-6.98,5.95-7.69,8.13-.71,2.19-1.06,5.33-1.06,9.43,0,4.69.31,7.72.92,9.09s1.83,2.05,3.66,2.05,2.86-.54,3.38-1.61c.52-1.07.79-3.88.79-8.44v-18.66Z"/>
      <path class="cls-1" d="m1225.98,19.96l-11.21,36.13,14.56,54.58h-26.56l-8.61-39.54-.03,39.54h-27.62V0h27.62l.03,46.46,8.61-26.5h23.21Z"/>
      <path class="cls-1" d="m1293.52,66.92h-35.75v19.62c0,4.1.3,6.75.89,7.93.59,1.19,1.73,1.78,3.42,1.78,2.1,0,3.5-.79,4.2-2.36.71-1.57,1.06-4.61,1.06-9.13v-11.96h26.18v6.7c0,5.61-.35,9.91-1.06,12.92-.71,3.01-2.36,6.22-4.96,9.64s-5.89,5.98-9.88,7.69c-3.99,1.71-8.99,2.56-15,2.56s-10.98-.84-15.45-2.53c-4.47-1.69-7.94-4-10.42-6.94-2.48-2.94-4.2-6.17-5.16-9.71-.96-3.53-1.44-8.67-1.44-15.42v-26.45c0-7.93,1.07-14.18,3.21-18.76,2.14-4.58,5.65-8.09,10.53-10.53,4.88-2.44,10.48-3.66,16.82-3.66,7.75,0,14.14,1.47,19.17,4.41,5.04,2.94,8.57,6.84,10.6,11.69,2.03,4.85,3.04,11.68,3.04,20.47v12.03Zm-27.69-14.77v-6.63c0-4.69-.25-7.72-.75-9.09-.5-1.37-1.53-2.05-3.08-2.05-1.91,0-3.1.58-3.55,1.74-.46,1.16-.68,4.3-.68,9.4v6.63h8.07Z"/>
      <path class="cls-1" d="m1328.11,19.96l-1.09,11.93c4.01-8.54,9.82-13.07,17.43-13.57v31.92c-5.06,0-8.77.68-11.14,2.05-2.37,1.37-3.83,3.27-4.38,5.71-.55,2.44-.82,8.06-.82,16.85v35.82h-27.62V19.96h27.62Z"/>
    </g>
  </g>
</svg>